<svg width="102" height="102" viewBox="0 0 102 102" fill="none" xmlns="http://www.w3.org/2000/svg">
<g id="Main Logo">
<path id="Union" fill-rule="evenodd" clip-rule="evenodd" d="M67.1608 6.75911C58.149 -2.25304 43.5467 -2.25304 34.5525 6.75911L20.6557 20.6566L6.75885 34.554C-2.25295 43.5662 -2.25295 58.169 6.75885 67.1635L36.951 36.9702L67.1608 6.75911ZM95.2543 34.8366L65.0623 65.0299L34.8523 95.2409C43.8641 104.253 58.4664 104.253 67.4606 95.2409L81.3576 81.3435L95.2543 67.4461C104.248 58.4516 104.248 43.8487 95.2543 34.8366ZM89.5053 29.1046L59.3132 59.298L45.4161 73.1954C36.422 82.2076 21.8197 82.2076 12.8079 73.1954L43.0002 43.002L56.897 29.1046C65.8911 20.0925 80.4934 20.0925 89.5053 29.1046Z" fill="#A6CE3A"/>
</g>
</svg>
